<svg xmlns="http://www.w3.org/2000/svg" version="1.1" width="512" height="512">
<path d="M0 0 C6.27206152 2.36581969 12.42443602 5.00623672 18.57723999 7.66424561 C23.03218194 9.58835932 27.49502672 11.49402495 31.95654297 13.40283203 C32.88367599 13.80008484 33.81080902 14.19733765 34.76603699 14.60662842 C44.61264414 18.82195465 54.49393306 22.95309084 64.37841797 27.07861328 C79.120056 33.23674374 93.84941518 39.42314889 108.56591797 45.64111328 C109.49647003 46.03424713 110.42702209 46.42738098 111.38577271 46.83242798 C118.93240975 50.02092149 126.47830869 53.21116025 134.02416992 56.40148926 C139.68394771 58.79432214 145.34395552 61.18660946 151.00430298 63.57809448 C152.87040439 64.36659631 154.7364329 65.1552707 156.60238647 65.94412231 C167.13317321 70.39571152 177.67179299 74.82752033 188.22607422 79.22314453 C189.2095282 79.63313187 190.19298218 80.0431192 191.20623779 80.4655304 C195.90654021 82.42496512 200.60812354 84.38117712 205.3125 86.33081055 C207.00510908 87.0356548 208.69765788 87.74064385 210.39013672 88.44580078 C211.50909081 88.90712151 211.50909081 88.90712151 212.65065002 89.37776184 C216.66533363 91.05508077 220.57707376 92.86642467 224.46394348 94.82351685 C225.35265042 95.27026827 226.24135736 95.71701969 227.15699482 96.17730904 C227.82818946 96.51598944 228.4993841 96.85466984 229.19091797 97.20361328 C229.25952569 131.43856723 229.31241701 165.67350553 229.34411396 199.90851333 C229.34786625 203.94665874 229.3517492 207.98480401 229.35571289 212.02294922 C229.35649982 212.82689997 229.35728675 213.63085072 229.35809753 214.45916362 C229.37116546 227.49111757 229.3948269 240.52303198 229.42237636 253.55496244 C229.45039203 266.91849628 229.46708608 280.28200935 229.47318345 293.64557135 C229.47730789 301.89724759 229.49035276 310.14881208 229.51466737 318.40045394 C229.53047725 324.05240994 229.53532916 329.70430784 229.5314221 335.35628437 C229.52949309 338.6213496 229.5341505 341.88617662 229.54853439 345.15121651 C229.56334395 348.68457825 229.55991378 352.21745219 229.55168152 355.75082397 C229.56042004 356.79166338 229.56915857 357.83250279 229.5781619 358.90488279 C229.57218875 359.8458983 229.5662156 360.7869138 229.56006145 361.75644493 C229.56120062 362.57284364 229.56233978 363.38924235 229.56351346 364.23038042 C229.44055695 364.88154726 229.31760044 365.53271411 229.19091797 366.20361328 C226.19091797 368.20361328 226.19091797 368.20361328 223.55949402 368.0397644 C219.3035377 366.98334691 215.35551414 365.46402875 211.29370117 363.82519531 C210.40916858 363.47385245 209.52463598 363.12250959 208.61329937 362.76051998 C205.65377404 361.5832339 202.69777076 360.39735467 199.74169922 359.21142578 C197.62006922 358.36526622 195.49823797 357.51961112 193.3762207 356.67442322 C187.61660899 354.37852575 181.86008561 352.07497674 176.10416031 349.7698555 C171.299024 347.84653951 166.49217768 345.92751871 161.6853056 344.00854588 C146.47721551 337.93709197 131.27498637 331.85105589 116.07476807 325.75992584 C112.84347304 324.46506291 109.612082 323.17043979 106.38065845 321.87589765 C89.59755003 315.15235785 72.8168696 308.42279245 56.03915024 301.6858139 C53.67968163 300.73841778 51.32016667 299.79113712 48.96060562 298.84397125 C42.23117638 296.14264815 35.50245475 293.4395776 28.77490234 290.73358345 C26.74032066 289.91545733 24.70552667 289.09785897 22.67050171 288.28083611 C19.88670953 287.16300991 17.10376844 286.04309081 14.32104492 284.92260742 C13.52230611 284.60236666 12.7235673 284.28212589 11.90062428 283.95218086 C8.01772711 282.38607128 4.15018428 280.78538934 0.30387878 279.1313324 C-0.414969 278.82336951 -1.13381678 278.51540663 -1.87444782 278.19811153 C-5.92468485 276.11608816 -8.33459405 272.91534525 -10.80908203 269.20361328 C-11.05747902 267.10618192 -11.05747902 267.10618192 -11.05517769 264.6333971 C-11.05915979 263.69039055 -11.06314188 262.74738399 -11.06724465 261.77580148 C-11.06141897 260.73787491 -11.05559328 259.69994835 -11.04959106 258.63056946 C-11.05129991 257.5295306 -11.05300876 256.42849174 -11.0547694 255.29408807 C-11.05807701 251.58588614 -11.04703959 247.87786313 -11.03613281 244.16967773 C-11.03556897 241.51901846 -11.03579655 238.86837032 -11.03701782 236.2177124 C-11.03806747 230.50136254 -11.03178251 224.78505826 -11.02054214 219.06871986 C-11.00430096 210.80382006 -10.99908056 202.53894235 -10.99656616 194.27402832 C-10.99218689 180.86537161 -10.97887148 167.45673921 -10.95996094 154.0480957 C-10.94160815 141.02140423 -10.92744871 127.99471936 -10.91894531 114.96801758 C-10.91841987 114.16530394 -10.91789442 113.3625903 -10.91735305 112.535552 C-10.91474301 108.50864878 -10.91221558 104.48174551 -10.90972924 100.45484221 C-10.8889895 67.03774827 -10.85375765 33.62068375 -10.80908203 0.20361328 C-6.40712663 -2.16856846 -4.66038457 -1.55459358 0 0 Z " fill="#38bdf8" transform="translate(10.80908203125,140.79638671875)"/>
<path d="M0 0 C1.18100049 2.36200097 1.12942957 3.7773543 1.13701439 6.4119978 C1.14208893 7.34521301 1.14716347 8.27842823 1.15239179 9.2399227 C1.15288955 10.27209632 1.15338731 11.30426995 1.15390015 12.36772156 C1.16047353 14.00446444 1.16047353 14.00446444 1.1671797 15.67427284 C1.18060649 19.35536001 1.18675527 23.03642322 1.19287109 26.7175293 C1.200769 29.3468283 1.20903775 31.97612622 1.21765137 34.60542297 C1.24218802 42.51421236 1.25680493 50.42300805 1.26971143 58.3318238 C1.27342262 60.56526645 1.27739592 62.79870848 1.2814641 65.03215051 C1.30670126 78.89814749 1.3287569 92.76414544 1.34119225 106.63016033 C1.344122 109.84287711 1.34708366 113.05559385 1.35009766 116.26831055 C1.35084371 117.06682813 1.35158976 117.86534571 1.35235842 118.6880608 C1.36501128 131.62279138 1.39823246 144.55738448 1.43989949 157.49205079 C1.48231775 170.76866453 1.5058872 184.04520789 1.51111281 197.32188922 C1.5145272 204.77752424 1.52628537 212.23294446 1.55921555 219.6885128 C1.58721593 226.03841609 1.59821562 232.38806057 1.58702008 238.7380208 C1.58183305 241.97753998 1.58744793 245.21640357 1.60948563 248.45586777 C1.63209314 251.9701528 1.62391951 255.48306915 1.60800171 258.99736023 C1.6218838 260.01838024 1.63576588 261.03940026 1.65006864 262.09136027 C1.57618827 268.70410905 0.49741031 272.07841785 -4 277 C-5.91750622 278.42784786 -5.91750622 278.42784786 -7.74223328 279.20506287 C-8.43239218 279.50908461 -9.12255108 279.81310635 -9.83362389 280.12634087 C-10.548528 280.41464838 -11.26343212 280.70295589 -12 281 C-12.70563395 281.2989171 -13.41126789 281.59783421 -14.13828468 281.9058094 C-16.45650916 282.87177723 -18.78749951 283.79882615 -21.12426758 284.71899414 C-22.0090809 285.07076941 -22.89389421 285.42254469 -23.80552006 285.78497982 C-26.7505736 286.9549683 -29.69756699 288.11998981 -32.64453125 289.28515625 C-34.76382566 290.12626585 -36.88297271 290.9677468 -39.00198364 291.80957031 C-43.5544677 293.61754936 -48.10771975 295.42357463 -52.66159058 297.22805786 C-64.1979645 301.79979399 -75.72950698 306.38369429 -87.26077485 310.96829104 C-89.15724542 311.72225167 -91.05376582 312.47608684 -92.95029259 313.22990608 C-121.97548295 324.76752079 -150.96001338 336.40566277 -179.9375 348.0625 C-182.30839881 349.01612759 -184.67929927 349.96975107 -187.05020142 350.92337036 C-198.29684726 355.44721468 -209.5430698 359.9721092 -220.78797626 364.50027561 C-222.24136707 365.0854493 -223.695453 365.66890143 -225.15043449 366.25010872 C-226.72358796 366.88793099 -228.28304413 367.55937042 -229.83912659 368.23777771 C-232.82218132 369.29001464 -234.97732053 368.75566987 -238 368 C-239 367 -239 367 -239.1241985 365.15096563 C-239.12381878 364.3341872 -239.12343906 363.51740877 -239.12304783 362.67587948 C-239.12503888 361.73685502 -239.12702993 360.79783056 -239.12908131 359.83035082 C-239.12616847 358.78659857 -239.12325563 357.74284632 -239.12025452 356.66746521 C-239.12110894 355.5681352 -239.12196337 354.46880519 -239.12284368 353.33616215 C-239.12450172 349.62179703 -239.11897184 345.90747625 -239.11352539 342.19311523 C-239.11324356 339.54275408 -239.11335705 336.89239572 -239.1139679 334.24203491 C-239.11449332 328.52020743 -239.11134459 322.79839132 -239.10573006 317.0765667 C-239.09761756 308.80367686 -239.09500009 300.53079255 -239.09374207 292.25789917 C-239.09155115 278.83705011 -239.08489 265.4162071 -239.07543945 251.99536133 C-239.06626635 238.95499705 -239.05918502 225.91463443 -239.05493164 212.87426758 C-239.05466892 212.07102849 -239.05440619 211.2677894 -239.05413551 210.44020974 C-239.05283051 206.41076522 -239.05156679 202.38132068 -239.05032361 198.35187614 C-239.03994977 164.90124636 -239.02233038 131.45062392 -239 98 C-237.08290613 97.03549283 -235.16512508 96.07235146 -233.24705505 95.10978699 C-231.64521945 94.3050433 -231.64521945 94.3050433 -230.01102352 93.48404217 C-226.55877854 91.78253533 -223.09510112 90.26311801 -219.53515625 88.80078125 C-218.87643524 88.52841644 -218.21771423 88.25605164 -217.53903198 87.97543335 C-216.12232231 87.39006827 -214.70482412 86.80660835 -213.28659058 86.22494507 C-209.32509405 84.5997199 -205.3700729 82.95883539 -201.4140625 81.3203125 C-200.57425339 80.97290512 -199.73444427 80.62549774 -198.8691864 80.26756287 C-188.869788 76.1267589 -178.90452286 71.90547736 -168.9375 67.6875 C-154.13764434 61.42786201 -139.32623766 55.19688742 -124.5 49 C-109.86342907 42.88142935 -95.23847266 36.73604079 -80.625 30.5625 C-79.70562653 30.17416992 -78.78625305 29.78583984 -77.83901978 29.38574219 C-68.09259528 25.26870053 -58.34783784 21.14773335 -48.60479736 17.02268982 C-44.46327659 15.26954138 -40.32124173 13.51760964 -36.17913818 11.76583862 C-33.25708817 10.52944453 -30.33581196 9.291235 -27.41455078 8.05297852 C-25.62406469 7.29563815 -23.83353941 6.5383904 -22.04296875 5.78125 C-21.24290909 5.44149643 -20.44284943 5.10174286 -19.61854553 4.75169373 C-4.32788398 -1.70492399 -4.32788398 -1.70492399 0 0 Z " fill="#38bdf8" transform="translate(511,140)"/>
<path d="M0 0 C2.32160325 1.10028433 4.6432183 2.20054376 6.96484375 3.30078125 C8.18230869 3.88325066 9.39959219 4.46609947 10.61669922 5.04931641 C14.27657551 6.79989175 17.95031592 8.51962671 21.62890625 10.23046875 C22.23768112 10.51361435 22.84645599 10.79675995 23.47367859 11.08848572 C24.71212103 11.66434591 25.95060081 12.2401258 27.18911743 12.81582642 C30.35183925 14.28742176 33.51179368 15.76493269 36.671875 17.2421875 C43.59388739 20.47721488 50.51746771 23.70887339 57.44152832 26.93951416 C60.56525431 28.39702877 63.68887161 29.85477626 66.8125 31.3125 C68.06249948 31.89583445 69.31249948 32.47916778 70.5625 33.0625 C138.06249999 64.5625 138.06249999 64.5625 139.93725586 65.43739319 C141.18806239 66.02109815 142.4388762 66.60478751 143.68969727 67.1884613 C146.80241713 68.64098123 149.91501258 70.09376652 153.02734375 71.54711914 C158.79818709 74.24157151 164.57013451 76.93356598 170.34643555 79.61630249 C173.02553946 80.86077673 175.70395429 82.10673021 178.38232422 83.3527832 C180.23468845 84.21383033 182.08802646 85.07278164 183.94140625 85.93164062 C190.01312891 88.75719648 196.05809534 91.63193498 202.0625 94.59765625 C203.21234375 95.16492432 204.3621875 95.73219238 205.546875 96.31665039 C208.3125 97.8125 208.3125 97.8125 210.3125 99.8125 C210.25 102.75 210.25 102.75 209.3125 105.8125 C205.22495779 108.74795123 200.51293671 110.55778407 195.90234375 112.515625 C194.66245697 113.04696297 194.66245697 113.04696297 193.39752197 113.58903503 C190.68330551 114.75069986 187.96675478 115.90678525 185.25 117.0625 C183.34085024 117.87756505 181.4317526 118.69275216 179.52270508 119.50805664 C166.42161835 125.09588945 153.28824576 130.60381198 140.1328125 136.06225586 C128.15136269 141.03493992 116.19767197 146.07174822 104.25 151.125 C89.44979323 157.38381114 74.63880538 163.61576442 59.8125 169.8125 C44.38317264 176.26179083 28.96774894 182.74339644 13.5625 189.25 C12.58821045 189.66145264 11.6139209 190.07290527 10.61010742 190.49682617 C7.84930569 191.66291554 5.08866473 192.82938428 2.328125 193.99609375 C1.51655945 194.33901962 0.7049939 194.6819455 -0.13116455 195.03526306 C-0.89451111 195.3580574 -1.65785767 195.68085175 -2.44433594 196.01342773 C-3.531922 196.46732376 -3.531922 196.46732376 -4.64147949 196.9303894 C-6.53666634 197.74747036 -8.39613002 198.64609512 -10.25097656 199.55102539 C-17.8954092 202.3571339 -23.31810282 200.61008721 -30.390625 197.40234375 C-31.21297134 197.0438736 -32.03531769 196.68540344 -32.88258362 196.31607056 C-34.65048592 195.5435187 -36.41551957 194.76437481 -38.17788696 193.97927856 C-41.94535375 192.30104828 -45.726527 190.65477806 -49.50691223 189.00590515 C-51.44270632 188.16102343 -53.377752 187.31442496 -55.3120575 186.46614075 C-63.99693342 182.65957889 -72.73699609 178.99718616 -81.5 175.375 C-84.44329033 174.15504582 -87.38584812 172.93333369 -90.328125 171.7109375 C-91.07363113 171.40128052 -91.81913727 171.09162354 -92.5872345 170.77258301 C-102.32533933 166.7225665 -112.03640347 162.60835258 -121.75 158.5 C-136.55020881 152.241188 -151.36137305 146.00966508 -166.1875 139.8125 C-180.53549758 133.81339288 -194.87691792 127.79889133 -209.20678711 121.7565918 C-211.16701141 120.93021171 -213.12745451 120.10435043 -215.08813477 119.27905273 C-220.25008181 117.10586007 -225.40843103 114.92472981 -230.55810547 112.72259521 C-232.48115787 111.90068985 -234.40646275 111.0840596 -236.33203125 110.26806641 C-237.32589844 109.8354248 -238.31976563 109.4027832 -239.34375 108.95703125 C-240.15650391 108.60616455 -240.96925781 108.25529785 -241.80664062 107.89379883 C-243.6875 106.8125 -243.6875 106.8125 -245.6875 103.8125 C-245.8125 101.4375 -245.8125 101.4375 -244.6875 98.8125 C-237.9460533 94.0754883 -230.53070908 90.79634477 -223.0625 87.375 C-221.73151004 86.76033002 -220.40078605 86.14508384 -219.0703125 85.52929688 C-216.31189223 84.25314751 -213.55235575 82.97945969 -210.79199219 81.70751953 C-205.03210873 79.05116048 -199.28637063 76.36460071 -193.54034424 73.67843628 C-190.42338892 72.22171119 -187.30538871 70.76722594 -184.1875 69.3125 C-182.93749506 68.72917725 -181.68749506 68.14584392 -180.4375 67.5625 C-112.9375 36.0625 -112.9375 36.0625 -111.06245422 35.18748474 C-109.81260057 34.60421564 -108.56275316 34.02093317 -107.31291199 33.43763733 C-104.18572385 31.9782116 -101.05842731 30.51901907 -97.9309082 29.06030273 C-92.33203492 26.44864164 -86.73390509 23.83545593 -81.13990784 21.21336365 C-66.96053373 14.56712981 -52.75293361 7.98719358 -38.5 1.5 C-37.77396576 1.16904327 -37.04793152 0.83808655 -36.29989624 0.49710083 C-34.24890162 -0.43728502 -32.1969165 -1.36945456 -30.14453125 -2.30078125 C-28.96866455 -2.83485596 -27.79279785 -3.36893066 -26.58129883 -3.91918945 C-16.72341412 -8.23975902 -9.08191257 -4.41539989 0 0 Z " fill="#38bdf8" transform="translate(273.6875,9.1875)"/>
</svg>